<svg width="256" height="256" viewBox="0 0 256 256" fill="none" xmlns="http://www.w3.org/2000/svg">
<g clip-path="url(#clip0)">
<path d="M3.2 42.6667C3.2 30.5939 7.2103 20.7818 13.9961 13.9961C20.7818 7.2103 30.5939 3.2 42.6667 3.2H213.333C225.406 3.2 235.218 7.2103 242.004 13.9961C248.79 20.7818 252.8 30.5939 252.8 42.6667V221.867C252.8 236.801 239.261 252.8 213.333 252.8H42.6667C30.5939 252.8 20.7818 248.79 13.9961 242.004C7.2103 235.218 3.2 225.406 3.2 213.333V42.6667Z" fill="#A3CBEF" stroke="black" stroke-width="6.4"/>
<path d="M224 208C224 232 176 240 144 240C112 240 64 232 64 208V88C88 104 128.785 104 144.785 104C163.452 104 200 104 224 88V208Z" fill="white" stroke="black" stroke-width="8" stroke-linejoin="round"/>
<path d="M144 64C117.333 64 64 68.8 64 88C88 104 128 104 144 104C160 104 200 104 224 88C224 68.8 170.667 64 144 64Z" fill="#523000" stroke="black" stroke-width="8"/>
<path d="M124 16C124 33.1429 128 67.4286 144 67.4286C140.667 67.4286 134 57.1429 134 16H124Z" fill="#524224"/>
<path d="M104 36.5714C104 53.7142 108 87.9999 124 87.9999C120.667 87.9999 114 77.7142 114 36.5714H104Z" fill="#524224"/>
<path d="M164 16C164 33.1429 168 67.4286 184 67.4286C180.667 67.4286 174 57.1429 174 16H164Z" fill="#524224"/>
<path d="M144 36.5714C144 53.7142 148 87.9999 164 87.9999C160.667 87.9999 154 77.7142 154 36.5714H144Z" fill="#524224"/>
<path d="M64 104C40 104 32 136 32 152C32 168 40 200 64 200" stroke="black" stroke-width="16"/>
</g>
<defs>
<clipPath id="clip0">
<rect width="256" height="256" fill="white"/>
</clipPath>
</defs>
</svg>
